/* XPM */
static char *_e75b5cffda54ac6d572cb1525dc73b2gk6XUwFP8ewFbqMD[] = {
/* columns rows colors chars-per-pixel */
"32 32 6 1 ",
"  c #BF4830",
". c #FDAE35",
"X c #FFD943",
"o c #9BADB7",
"O c #CBDBFC",
"+ c white",
/* pixels */
"++++++++++++++++++++++++++++++++",
"++++++++++++++++++++++o+++++++++",
"+++++++++++++++++++++o+o++++++++",
"+++++++++++.......  ++o+++++++++",
"+++++++++.. ........  ++++++++++",
"++++++++. ...........  +++++++++",
"+++++++. ..........XX.  ++++++++",
"++++++. ..........XXXX.  +++++++",
"++++++. ..... . .XXXX..  +++++++",
"++++++. ..... . XXXX...  +++++++",
"+++++. ....       X.....  ++++++",
"+++++. .....       .....  ++++++",
"+++++. .....  XX   .....  ++++++",
"+++++. .....  XX   .....  ++++++",
"+++++. ....X      ......  ++++++",
"O++++. ...XX      ......  ++++++",
"+O+++. ..XXX  ..   .....  +++++O",
"O++++. .XXXX  ..   .....  ++++++",
"+++++. .XXX.       .....  ++++++",
"+++++. .XX.       ......  ++++++",
"++++++. ..... . .......  +++++++",
"++++++. ..... . .......  +++++++",
"++++++. ...............  +++++++",
"+++++++. .............  ++++++++",
"++++++++. ...........  ++O++++++",
"+++++++++.. ........  +O+O++++++",
"+++++++++++.......  +++O+O++++++",
"+++++++++++++++++++++++O++++++++",
"++++++++++++++++++++++++++++++++",
"+++++++++++++O++++++++++++++++++",
"++++++++++++O+O+++++++++++++++++",
"+++++++++++++O++++++++++++++++++"
};
