/* XPM */
static char *_0ec7d84c9404bef8bca57cbec532f03tFLicYfCRenE1MiJ[] = {
/* columns rows colors chars-per-pixel */
"32 32 9 1 ",
"  c black",
". c gray8",
"X c gray22",
"o c #522E17",
"O c gray50",
"+ c #82522F",
"@ c #9BADB7",
"# c #CBDBFC",
"$ c white",
/* pixels */
"$$$$$$$$$$$$$$$$$$$$$$$$$$$$$$$$",
"$$$$$$$$$$$$$$$$$$$$$$@$$$$$$$$$",
"$$$$$$$$$$            $@$$$$$$$$",
"$$$$$$$$  ++o++o++ .... $$$$$$$$",
"$$$$$$$ +o++o++o++   ... $$$$$$$",
"$$$$$$ ++o++o++o++     .. $$$$$$",
"$$$$$$ XXoXXoXXoXX     .. $$$$$$",
"$$$$$ o++o++o++o++      .. $$$$$",
"$$$$$ o++o++o++OO+      .. $$$$$",
"$$$$$ o++o++o+Oo+O      .. $$$$$",
"$$$$$ o++o++o+Oo+O      .. $$$$$",
"$$$$$ o++o++o++OO+      .. $$$$$",
"$$$$ +o++o++o++o++       .. $$$$",
"$$$$ +o++o++o++o++       .. $$$$",
"$$$$ +o++o++o++o++       .. $$$$",
"#$$$ XoXXoXXoXXoXX       .. $$$$",
"$#$$ +o++o++o++o++       .. $$$#",
"#$$$ +o++o++o++o++       .. $$$$",
"$$$$ +o++o++o++o++       .. $$$$",
"$$$$ +o++o++o++o++       .. $$$$",
"$$$$ +o++o++o++o+        .. $$$$",
"$$$$ +o++o++o++          .. $$$$",
"$$$$ +o++o+++            .. $$$$",
"$$$$ XoXX++              .. $$$$",
"$$$$ +o++               ... $$$$",
"$$$$ ++             ....... $$$$",
"$$$$                        $$$$",
"$$$$$$$$$$$$$$$$$$$$$$$#$$$$$$$$",
"$$$$$$$$$$$$$$$$$$$$$$$$$$$$$$$$",
"$$$$$$$$$$$$$#$$$$$$$$$$$$$$$$$$",
"$$$$$$$$$$$$#$#$$$$$$$$$$$$$$$$$",
"$$$$$$$$$$$$$#$$$$$$$$$$$$$$$$$$"
};
