/* XPM */
static char *a18a278f8abe4692efa9e0caf032be4ePHJI3TdwE3zar5HA[] = {
/* columns rows colors chars-per-pixel */
"32 32 8 1 ",
"  c black",
". c gray22",
"X c #522E17",
"o c gray50",
"O c #82522F",
"+ c #9BADB7",
"@ c #CBDBFC",
"# c white",
/* pixels */
"################################",
"######################+#########",
"##########            #+########",
"########  OOXOOXOOXOOX  ########",
"####### OXOOXOOXOOXOOXOO #######",
"###### OOXOOXOOXOOXOOXOOX ######",
"###### ..X..X..X..X..X..X ######",
"##### XOOXOOXOOXOOXOOXOOXO #####",
"##### XOOXOOXOOXOOXOOXOOXO #####",
"##### XOOXOOXOOXOOXOOXOOXO #####",
"##### XOOXOOXOOXOOXOOXOOXO #####",
"##### XOOXOOXOOXOOXOOXOOXO #####",
"#### OXOOXOOXOOXOOXOOXOOXOO ####",
"#### OXOOXOOXOOXOOXOOXOOXOO ####",
"#### OXOOXOOXOOXOOXOOXOOXOO ####",
"@### .X..X..X..X..X..X..oo. ####",
"#@## OXOOXOOXOOXOOXOOXOoXOo ###@",
"@### OXOOXOOXOOXOOXOOXOoXOo ####",
"#### OXOOXOOXOOXOOXOOXOOooO ####",
"#### OXOOXOOXOOXOOXOOXOOXOO ####",
"#### OXOOXOOXOOXOOXOOXOOXOO ####",
"#### OXOOXOOXOOXOOXOOXOOXOO ####",
"#### OXOOXOOXOOXOOXOOXOOXOO ####",
"#### .X..X..X..X..X..X..X.. ####",
"#### OXOOXOOXOOXOOXOOXOOXOO ####",
"#### OXOOXOOXOOXOOXOOXOOXOO ####",
"####                        ####",
"#######################@########",
"################################",
"#############@##################",
"############@#@#################",
"#############@##################"
};
