/* XPM */
static char *f487517730f0449e8558b242d7d11396hDeNDl9by0mOPRJx[] = {
/* columns rows colors chars-per-pixel */
"32 32 6 1 ",
"  c black",
". c #1B1B1B",
"X c #2D2D2D",
"o c #9BADB7",
"O c #CBDBFC",
"+ c white",
/* pixels */
"++++++++++++++++++++++++++++++++",
"++++++++++++++++++++++o+++++++++",
"++++++++++++++    +++o+o++++++++",
"+++++++++++          +o+++++++++",
"+++++++++              +++++++++",
"+++++++                  +++++++",
"+++++++++++++ +  + +++++++++++++",
"+++++++++++++ +  + +++++++++++++",
"++++++O++++++      ++O++++++++++",
"++++++O++++++     OoOO++++++++++",
"++++++O+O+++XXXXXXoOOo++++++++++",
"++++++O+O++XXXXXXXXoo+++++++++++",
"++++++++O++XXXXXXXX+++++++++++++",
"++++++++++XXXX    XX++++++++++++",
"++++++++++XXXX     X++++++++++++",
"O+++++++++XXXX     X++++++++++++",
"+O+++++++XXXX      X..+++++++++O",
"O++++++++XXXX       ..++++++++++",
"+++++++++XXXX       ..++++++++++",
"+++++++++XXXX       X+++++++++++",
"++++++++XXXXX       X+++++++++++",
"++++++++XXXX         X++++++++++",
"++++++++XXXX         X++++++++++",
"++++++++XXX          X++++++++++",
"++++++++XXX          X+++O++++++",
"++++++++XXX   +++   XX+O+O++++++",
"+++++++++XX  +++++  +++O+O++++++",
"++++++++++ ++++++++ +++O++++++++",
"++++++++++ ++++++++ ++++++++++++",
"+++++++++++++O++++++++++++++++++",
"++++++++++++O+O+++++++++++++++++",
"+++++++++++++O++++++++++++++++++"
};
