/* XPM */
static char *_dbe3fb5e64f4253ebc6fb1ffb741ceflH4ZDAjhd3J6BAn9[] = {
/* columns rows colors chars-per-pixel */
"32 32 7 1 ",
"  c black",
". c #1B1B1B",
"X c #2D2D2D",
"o c gray50",
"O c #9BADB7",
"+ c #CBDBFC",
"@ c white",
/* pixels */
"@@@@@@@@@@@@@@@@@@@@@@@@@@@@@@@@",
"@@@@@@@@@@@@@@@@@@@@@@O@@@@@@@@@",
"@@@@@@@@@@@@@@    @@@O@O@@@@@@@@",
"@@@@@@@@@@@          @O@@@@@@@@@",
"@@@@@@@@@              @@@@@@@@@",
"@@@@@@@                  @@@@@@@",
"@@@@@@@@@@@@@      @@@@@@@@@@@@@",
"@@@@@@@@@@@@@      @@@@@@@@@@@@@",
"@@@@@@+@@@@@@      @@+@@@@@@@@@@",
"@@@@@@+@@@@@@     +O++@@@@@@@@@@",
"@@@@@@+@+@@@XXXXXXO++O@@@@@@@@@@",
"@@@@@@+@+@@XXXXXXXXOO@@@@@@@@@@@",
"@@@@@@@@+@@XXXXXXXX@@@@@@@@@@@@@",
"@@@@@@@@@@XXXXXXXXXX@@@@@@@@@@@@",
"@@@@@@@@@@XXXXXXXXXX@@@@@@@@@@@@",
"+@@@@@@@@@XXXXXXXXXX@@@@@@@@@@@@",
"@+@@@@@@..XXXXXXXXXXX.@@@@@@@@@+",
"+@@@@@@@..XXXXXXXXXXX.@@@@@@@@@@",
"@@@@@@@@.ooXXXXXXXXXX.@@@@@@@@@@",
"@@@@@@@@@ooXXXXXXXXXX@@@@@@@@@@@",
"@@@@@@@@XooXXXXXXXXXX@@@@@@@@@@@",
"@@@@@@@@XoooXXXXXXXXXX@@@@@@@@@@",
"@@@@@@@@XXooXXXXXXXXXX@@@@@@@@@@",
"@@@@@@@@XXooXXXXXXXXXX@@@@@@@@@@",
"@@@@@@@@XXooXXXXXXXXXX@@@+@@@@@@",
"@@@@@@@@XXXXXX@@@XXXXX@+@+@@@@@@",
"@@@@@@@@@XXXX@@@@@XX@@@+@+@@@@@@",
"@@@@@@@@@@ @@@@@@@@ @@@+@@@@@@@@",
"@@@@@@@@@@ @@@@@@@@ @@@@@@@@@@@@",
"@@@@@@@@@@@@@+@@@@@@@@@@@@@@@@@@",
"@@@@@@@@@@@@+@+@@@@@@@@@@@@@@@@@",
"@@@@@@@@@@@@@+@@@@@@@@@@@@@@@@@@"
};
