/* XPM */
static char *b2341caafb174332b9316589833357a2MIf1kYBm7RBtGHwl[] = {
/* columns rows colors chars-per-pixel */
"32 32 6 1 ",
"  c black",
". c #1B1B1B",
"X c #2D2D2D",
"o c #9BADB7",
"O c #CBDBFC",
"+ c white",
/* pixels */
"++++++++++++++++++++++++++++++++",
"++++++++++++++++++++++o+++++++++",
"++++++++++++++    +++o+o++++++++",
"+++++++++++          +o+++++++++",
"+++++++++              +++++++++",
"+++++++                  +++++++",
"+++++++++++++    + +++++++++++++",
"+++++++++++++    + +++++++++++++",
"++++++O++++++      ++O++++++++++",
"++++++O++++++     OoOO++++++++++",
"++++++O+O+++XXX   oOOo++++++++++",
"++++++O+O++XXXX   Xoo+++++++++++",
"++++++++O++XXXXXXXX+++++++++++++",
"++++++++++XXXXXXXXX+++++++++++++",
"++++++++++XXXXXXX  X++++++++++++",
"O+++++++++XXXXXXX  X++++++++++++",
"+O+++++++XXXXXXX   X+...+++++++O",
"O++++++++XXXXXXX    X...++++++++",
"+++++++++XXXXXXX    X.++++++++++",
"+++++++++XXXXXX     X+++++++++++",
"++++++++XXXXXXX     X+++++++++++",
"++++++++XXXXXXX      X++++++++++",
"++++++++XXXXXXX      X++++++++++",
"++++++++XXXXXX       X++++++++++",
"++++++++XXXXXX       X+++O++++++",
"++++++++XXXXXX+++   XX+O+O++++++",
"+++++++++XXXX+++++  +++O+O++++++",
"++++++++++ ++++++++ +++O++++++++",
"++++++++++ ++++++++ ++++++++++++",
"+++++++++++++O++++++++++++++++++",
"++++++++++++O+O+++++++++++++++++",
"+++++++++++++O++++++++++++++++++"
};
