/* XPM */
static char *result[] = {
/* columns rows colors chars-per-pixel */
"32 32 6 1 ",
"  c black",
". c #1B1B1B",
"X c #2D2D2D",
"o c #9BADB7",
"O c #CBDBFC",
"+ c white",
/* pixels */
"++++++++++++++++++++++++++++++++",
"++++++++++++++++++++++o+++++++++",
"++++++++++++++    +++o+o++++++++",
"+++++++++++          +o+++++++++",
"+++++++++              +++++++++",
"+++++++                  +++++++",
"+++++++++++++ +    +++++++++++++",
"+++++++++++++ +    +++++++++++++",
"++++++O++++++      ++O++++++++++",
"++++++O+++++++     oOO++++++++++",
"++++++O+O+++++   XXXOo++++++++++",
"++++++O+O++++X   XXXX+++++++++++",
"++++++++O++++XXXXXXXX+++++++++++",
"+++++++++++++XXXXXXXXX++++++++++",
"++++++++++++X  XXXXXXX++++++++++",
"O+++++++++++X  XXXXXXX++++++++++",
"+O++++++...+X   XXXXXXX++++++++O",
"O+++++++...X    XXXXXXX+++++++++",
"++++++++++.X    XXXXXXX+++++++++",
"+++++++++++X     XXXXXX+++++++++",
"+++++++++++X     XXXXXXX++++++++",
"++++++++++X      XXXXXXX++++++++",
"+++++++++oX      XXXXXXX++++++++",
"++++++++++X       XXXXXX++++++++",
"++++++++++X       XXXXXX+O++++++",
"++++++++++XX   +++XXXXXX+O++++++",
"++++++++++++  +++++XXXXO+O++++++",
"++++++++++++ ++++++++ +O++++++++",
"++++++++++++ ++++++++ ++++++++++",
"+++++++++++++O++++++++++++++++++",
"++++++++++++O+O+++++++++++++++++",
"+++++++++++++O++++++++++++++++++"
};
